<?xml version="1.0" encoding="UTF-8"?>
<svg width="237" height="110.8" viewBox="0 0 237 110.8" xmlns="http://www.w3.org/2000/svg">
  <g transform="translate(0,110.8) scale(0.13333333,-0.13333333)">
    <path d="m 516.004,419.773 c 53.984,54.012 53.984,141.551 0,195.555 -54.004,53.996 -141.543,53.996 -195.555,0 -53.984,-54.004 -53.984,-141.543 0,-195.555 54.012,-53.98 141.551,-53.98 195.555,0" fill="#fff"/>
    <path d="m 239.582,224.848 c 31.484,31.5 31.484,82.562 0,114.058 -31.508,31.485 -82.559,31.485 -114.059,0 -31.48,-31.496 -31.48,-82.558 0,-114.058 31.5,-31.481 82.551,-31.481 114.059,0" fill="#fff"/>
    <path d="m 524.578,623.902 c -78.703,78.703 -206.305,78.703 -284.996,0 -78.715,-78.703 -78.715,-206.304 0,-284.996 78.691,-78.715 206.293,-78.715 284.996,0 78.695,78.692 78.695,206.293 0,284.996 m -9.371,-9.371 c 73.398,-73.402 73.398,-192.851 0,-266.265 -73.414,-73.399 -192.852,-73.399 -266.266,0 -73.398,73.414 -73.398,192.863 0,266.265 73.414,73.399 192.852,73.399 266.266,0" fill="#fff"/>
    <path d="m 524.684,624.008 c -111.5,111.496 -292.254,111.496 -403.754,0 -111.48078,-111.496 -111.48078,-292.246 0,-403.754 111.5,-111.481 292.254,-111.481 403.754,0 111.468,111.508 111.468,292.258 0,403.754 m -9.383,-9.367 c 106.152,-106.145 106.152,-278.856 0,-384.996 -106.129,-106.153 -278.84,-106.153 -384.996,0 -106.1527,106.14 -106.1527,278.851 0,384.996 106.156,106.136 278.867,106.136 384.996,0" fill="#fff"/>
  </g>
</svg>