<?xml version="1.0" encoding="UTF-8" standalone="no"?>
<!-- Created with Inkscape[](http://www.inkscape.org/) -->

<svg
   version="1.1"
   id="svg1"
   width="474.17334"
   height="110.8"
   viewBox="0 0 474.17334 110.8"
   sodipodi:docname="TPROST_white.eps"
   xmlns:inkscape="http://www.inkscape.org/namespaces/inkscape"
   xmlns:sodipodi="http://sodipodi.sourceforge.net/DTD/sodipodi-0.dtd"
   xmlns="http://www.w3.org/2000/svg"
   xmlns:svg="http://www.w3.org/2000/svg">
  <defs
     id="defs1" />
  <sodipodi:namedview
     id="namedview1"
     pagecolor="#ffffff"
     bordercolor="#000000"
     borderopacity="0.25"
     inkscape:showpageshadow="2"
     inkscape:pageopacity="0.0"
     inkscape:pagecheckerboard="0"
     inkscape:deskcolor="#d1d1d1">
    <inkscape:page
       x="0"
       y="0"
       inkscape:label="1"
       id="page1"
       width="474.17334"
       height="110.8"
       margin="0"
       bleed="0" />
  </sodipodi:namedview>
  <g
     id="g1"
     inkscape:groupmode="layer"
     inkscape:label="1">
    <g
       id="group-R5">
      <path
         id="path6"
         d="m 860.801,661.168 h 21.758 v -29.445 c 15.148,22.613 34.562,33.922 58.242,33.922 12.586,0 23.84,-3.575 33.762,-10.719 9.917,-7.153 16.582,-17.231 20,-30.238 7.037,13.222 15.997,23.359 26.877,30.394 10.88,7.043 22.72,10.563 35.52,10.563 15.57,0 29.12,-5.493 40.64,-16.481 11.52,-10.988 17.28,-32.695 17.28,-65.121 v -92.797 h -22.4 v 92.797 c 0,15.57 -0.96,27.043 -2.88,34.402 -1.92,7.36 -6.08,13.547 -12.48,18.563 -6.4,5.008 -14.51,7.519 -24.32,7.519 -11.31,0 -21.55,-3.519 -30.72,-10.562 -9.17,-7.039 -15.47,-16 -18.88,-26.879 -3.415,-10.879 -5.118,-27.313 -5.118,-49.281 v -66.559 h -21.441 v 87.039 c 0,18.133 -0.961,31.09 -2.879,38.879 -1.918,7.785 -6.192,14.289 -12.797,19.52 -6.617,5.226 -14.723,7.843 -24.324,7.843 -9.598,0 -18.618,-2.832 -27.039,-8.48 -8.43,-5.656 -15.039,-13.391 -19.84,-23.199 -4.801,-9.817 -7.203,-26.356 -7.203,-49.602 v -72 h -21.758 v 169.922"
         style="fill:#ffffff;fill-opacity:1;fill-rule:nonzero;stroke:none"
         transform="matrix(0.13333333,0,0,-0.13333333,0,110.8)" />
      <path
         id="path7"
         d="m 1304,592.684 c -3.42,16.211 -11.04,28.91 -22.88,38.082 -11.84,9.172 -25.44,13.761 -40.8,13.761 -15.15,0 -28.17,-4.375 -39.04,-13.121 -10.88,-8.75 -18.78,-21.656 -23.68,-38.722 z m 0,-46.399 18.56,-9.601 c -16.86,-34.133 -43.95,-51.2 -81.28,-51.2 -26.03,0 -47.26,8.743 -63.68,26.239 -16.43,17.492 -24.64,38.613 -24.64,63.359 0,25.172 8.32,46.563 24.96,64.16 16.64,17.606 37.33,26.403 62.08,26.403 24.74,0 45.48,-8.27 62.24,-24.801 16.74,-16.531 25.44,-38.879 26.08,-67.039 h -152.96 c 0.64,-20.481 7.09,-36.957 19.36,-49.442 12.26,-12.476 27.14,-18.718 44.64,-18.718 28.58,0 50.13,13.543 64.64,40.64"
         style="fill:#ffffff;fill-opacity:1;fill-rule:nonzero;stroke:none"
         transform="matrix(0.13333333,0,0,-0.13333333,0,110.8)" />
      <path
         id="path8"
         d="M 1349.76,661.168 H 1376 l 44.8,-63.043 45.11,63.043 h 26.25 l -58.24,-80.641 65.59,-89.281 h -26.55 l -52.16,71.359 -51.2,-71.359 h -25.93 l 64.32,89.281 -58.23,80.641"
         style="fill:#ffffff;fill-opacity:1;fill-rule:nonzero;stroke:none"
         transform="matrix(0.13333333,0,0,-0.13333333,0,110.8)" />
      <path
         id="path9"
         d="m 1643.52,573.164 h -98.89 v -81.918 h -22.08 v 169.922 h 22.08 v -67.52 h 98.89 v 67.52 h 21.75 V 491.246 h -21.75 v 81.918"
         style="fill:#ffffff;fill-opacity:1;fill-rule:nonzero;stroke:none"
         transform="matrix(0.13333333,0,0,-0.13333333,0,110.8)" />
      <path
         id="path10"
         d="M 1735.99,661.168 V 535.406 l 124.8,125.762 h 1.6 V 491.246 h -21.76 V 616.047 L 1716.48,491.246 h -2.57 v 169.922 h 22.08"
         style="fill:#ffffff;fill-opacity:1;fill-rule:nonzero;stroke:none"
         transform="matrix(0.13333333,0,0,-0.13333333,0,110.8)" />
      <path
         id="path11"
         d="m 1911.03,661.168 h 22.08 v -71.363 l 78.72,71.363 h 30.4 l -86.08,-77.766 92.8,-92.156 h -30.72 l -78.08,78.719 -7.04,-6.078 v -72.641 h -22.08 v 169.922"
         style="fill:#ffffff;fill-opacity:1;fill-rule:nonzero;stroke:none"
         transform="matrix(0.13333333,0,0,-0.13333333,0,110.8)" />
      <path
         id="path12"
         d="m 2220.79,575.406 c 0,19.836 -6.45,36.317 -19.35,49.438 -12.91,13.121 -28.86,19.683 -47.84,19.683 -18.35,0 -34.19,-6.832 -47.52,-20.484 -13.34,-13.652 -20,-29.867 -20,-48.637 0,-18.988 6.5,-35.363 19.52,-49.121 13.01,-13.762 29,-20.64 48,-20.64 17.92,0 33.6,6.664 47.04,20 13.43,13.332 20.15,29.921 20.15,49.761 z m 20.17,85.762 V 491.246 h -21.45 v 28.481 c -18.98,-22.832 -41.71,-34.243 -68.15,-34.243 -24.33,0 -44.96,8.852 -61.92,26.563 -16.97,17.703 -25.44,39.039 -25.44,64 0,24.527 8.69,45.598 26.08,63.195 17.38,17.606 38.02,26.403 61.91,26.403 27.74,0 50.25,-11.84 67.52,-35.516 v 31.039 h 21.45"
         style="fill:#ffffff;fill-opacity:1;fill-rule:nonzero;stroke:none"
         transform="matrix(0.13333333,0,0,-0.13333333,0,110.8)" />
      <path
         id="path13"
         d="m 860.801,371.168 h 22.082 v -30.402 c 17.488,23.25 38.719,34.879 63.676,34.879 12.804,0 24.32,-3.473 34.562,-10.403 10.238,-6.933 17.488,-16 21.759,-27.195 4.27,-11.199 6.4,-27.68 6.4,-49.445 v -87.356 h -21.76 v 80.961 c 0,19.84 -0.907,33.277 -2.719,40.316 -1.817,7.043 -4.59,13.012 -8.321,17.922 -3.734,4.907 -8.48,8.641 -14.238,11.2 -5.762,2.558 -12.48,3.839 -20.16,3.839 -8.75,0 -17.07,-2.027 -24.961,-6.082 -7.894,-4.05 -14.613,-9.707 -20.16,-16.957 -5.547,-7.254 -9.277,-14.718 -11.199,-22.402 -1.922,-7.68 -2.879,-23.148 -2.879,-46.395 v -62.402 h -22.082 v 169.922"
         style="fill:#ffffff;fill-opacity:1;fill-rule:nonzero;stroke:none"
         transform="matrix(0.13333333,0,0,-0.13333333,0,110.8)" />
      <path
         id="path14"
         d="m 1211.52,285.406 c 0,18.559 -6.51,34.723 -19.52,48.481 -13.02,13.758 -29.02,20.64 -48,20.64 -19.2,0 -35.26,-6.722 -48.16,-20.164 -12.91,-13.441 -19.36,-29.972 -19.36,-49.597 0,-19.414 6.56,-35.789 19.68,-49.121 13.11,-13.336 29.17,-20 48.16,-20 17.92,0 33.6,6.828 47.03,20.476 13.45,13.652 20.17,30.086 20.17,49.285 z m -155.2,85.762 h 21.76 v -31.039 c 17.28,23.676 39.78,35.516 67.52,35.516 24.1,0 44.74,-8.637 61.92,-25.918 17.16,-17.282 25.76,-38.512 25.76,-63.68 0,-25.395 -8.48,-46.832 -25.44,-64.324 -16.96,-17.496 -37.5,-26.239 -61.6,-26.239 -27.52,0 -50.24,11.411 -68.16,34.243 v -90.563 h -21.76 v 232.004"
         style="fill:#ffffff;fill-opacity:1;fill-rule:nonzero;stroke:none"
         transform="matrix(0.13333333,0,0,-0.13333333,0,110.8)" />
      <path
         id="path15"
         d="m 1421.11,284.766 c 0,18.769 -6.56,35.039 -19.68,48.797 -13.12,13.761 -28.64,20.64 -46.56,20.64 -18.35,0 -33.97,-6.832 -46.88,-20.476 -12.91,-13.661 -19.36,-29.977 -19.36,-48.961 0,-18.989 6.41,-35.153 19.2,-48.481 12.8,-13.336 28.49,-20 47.04,-20 18.35,0 33.97,6.449 46.88,19.36 12.91,12.906 19.36,29.281 19.36,49.121 z m -154.88,0.316 c 0,25.172 8.53,46.563 25.6,64.16 17.07,17.606 38.08,26.403 63.04,26.403 24.75,0 45.65,-8.852 62.72,-26.559 17.07,-17.707 25.6,-39.043 25.6,-64.004 0,-24.746 -8.43,-45.867 -25.28,-63.359 -16.85,-17.496 -37.86,-26.239 -63.04,-26.239 -25.17,0 -46.24,8.801 -63.2,26.403 -16.96,17.601 -25.44,38.664 -25.44,63.195"
         style="fill:#ffffff;fill-opacity:1;fill-rule:nonzero;stroke:none"
         transform="matrix(0.13333333,0,0,-0.13333333,0,110.8)" />
      <path
         id="path16"
         d="m 1648.96,335.969 -17.29,-10.887 c -14.93,19.844 -35.41,29.762 -61.43,29.762 -20.7,0 -37.92,-6.668 -51.69,-20 -13.75,-13.336 -20.64,-29.707 -20.64,-49.117 0,-19.204 6.89,-35.684 20.64,-49.442 13.77,-13.762 30.99,-20.64 51.69,-20.64 24.96,0 45.44,9.921 61.43,29.761 l 17.29,-11.519 c -8.32,-12.379 -19.42,-21.871 -33.28,-28.481 -13.88,-6.613 -29.34,-9.922 -46.41,-9.922 -26.67,0 -48.91,8.586 -66.72,25.762 -17.81,17.168 -26.72,38.129 -26.72,62.879 0,25.387 9.02,46.984 27.04,64.801 18.03,17.808 40.8,26.719 68.32,26.719 16.64,0 31.9,-3.473 45.76,-10.403 13.87,-6.933 24.54,-16.691 32.01,-29.273"
         style="fill:#ffffff;fill-opacity:1;fill-rule:nonzero;stroke:none"
         transform="matrix(0.13333333,0,0,-0.13333333,0,110.8)" />
      <path
         id="path17"
         d="m 1690.87,371.168 h 21.77 v -29.445 c 15.13,22.613 34.56,33.922 58.23,33.922 12.59,0 23.85,-3.575 33.76,-10.719 9.92,-7.153 16.59,-17.231 20,-30.238 7.04,13.222 16.01,23.359 26.89,30.394 10.87,7.043 22.71,10.563 35.51,10.563 15.58,0 29.12,-5.493 40.65,-16.481 11.51,-10.988 17.27,-32.695 17.27,-65.121 v -92.797 h -22.4 v 92.797 c 0,15.57 -0.96,27.043 -2.88,34.402 -1.91,7.36 -6.07,13.547 -12.47,18.563 -6.41,5.008 -14.51,7.519 -24.33,7.519 -11.31,0 -21.55,-3.519 -30.72,-10.562 -9.17,-7.039 -15.47,-16 -18.88,-26.879 -3.41,-10.879 -5.11,-27.313 -5.11,-49.281 v -66.559 h -21.45 v 87.039 c 0,18.133 -0.96,31.09 -2.88,38.879 -1.91,7.785 -6.18,14.289 -12.79,19.52 -6.62,5.226 -14.73,7.843 -24.33,7.843 -9.6,0 -18.61,-2.832 -27.04,-8.48 -8.43,-5.656 -15.04,-13.391 -19.83,-23.199 -4.81,-9.817 -7.2,-26.356 -7.2,-49.602 v -72 h -21.77 v 169.922"
         style="fill:#ffffff;fill-opacity:1;fill-rule:nonzero;stroke:none"
         transform="matrix(0.13333333,0,0,-0.13333333,0,110.8)" />
      <path
         id="path18"
         d="m 2146.55,285.406 c 0,18.559 -6.51,34.723 -19.52,48.481 -13.01,13.758 -29.01,20.64 -48,20.64 -19.2,0 -35.26,-6.722 -48.16,-20.164 -12.91,-13.441 -19.35,-29.972 -19.35,-49.597 0,-19.414 6.55,-35.789 19.67,-49.121 13.12,-13.336 29.17,-20 48.16,-20 17.92,0 33.6,6.828 47.04,20.476 13.44,13.652 20.16,30.086 20.16,49.285 z m -155.2,85.762 h 21.76 v -31.039 c 17.28,23.676 39.78,35.516 67.52,35.516 24.11,0 44.74,-8.637 61.92,-25.918 17.17,-17.282 25.76,-38.512 25.76,-63.68 0,-25.395 -8.48,-46.832 -25.44,-64.324 -16.96,-17.496 -37.5,-26.239 -61.6,-26.239 -27.52,0 -50.24,11.411 -68.16,34.243 v -90.563 h -21.76 v 232.004"
         style="fill:#ffffff;fill-opacity:1;fill-rule:nonzero;stroke:none"
         transform="matrix(0.13333333,0,0,-0.13333333,0,110.8)" />
      <path
         id="path19"
         d="m 2358.39,285.406 c 0,19.836 -6.45,36.317 -19.36,49.438 -12.91,13.121 -28.85,19.683 -47.84,19.683 -18.35,0 -34.19,-6.832 -47.52,-20.484 -13.34,-13.652 -20,-29.867 -20,-48.637 0,-18.988 6.51,-35.363 19.52,-49.121 13.01,-13.762 29.01,-20.64 48,-20.64 17.92,0 33.61,6.664 47.04,20 13.44,13.332 20.16,29.921 20.16,49.761 z m 20.17,85.762 V 201.246 h -21.45 v 28.481 c -18.98,-22.832 -41.71,-34.243 -68.15,-34.243 -24.33,0 -44.96,8.852 -61.93,26.563 -16.96,17.703 -25.44,39.039 -25.44,64 0,24.527 8.69,45.598 26.09,63.195 17.38,17.606 38.01,26.403 61.91,26.403 27.74,0 50.25,-11.84 67.52,-35.516 v 31.039 h 21.45"
         style="fill:#ffffff;fill-opacity:1;fill-rule:nonzero;stroke:none"
         transform="matrix(0.13333333,0,0,-0.13333333,0,110.8)" />
      <path
         id="path20"
         d="m 2548.79,283.164 h -98.89 v -81.918 h -22.08 v 169.922 h 22.08 v -67.52 h 98.89 v 67.52 h 21.76 V 201.246 h -21.76 v 81.918"
         style="fill:#ffffff;fill-opacity:1;fill-rule:nonzero;stroke:none"
         transform="matrix(0.13333333,0,0,-0.13333333,0,110.8)" />
      <path
         id="path21"
         d="m 2784.31,335.969 -17.29,-10.887 c -14.93,19.844 -35.41,29.762 -61.43,29.762 -20.7,0 -37.92,-6.668 -51.68,-20 -13.76,-13.336 -20.65,-29.707 -20.65,-49.117 0,-19.204 6.89,-35.684 20.65,-49.442 13.76,-13.762 30.98,-20.64 51.68,-20.64 24.96,0 45.44,9.921 61.43,29.761 l 17.29,-11.519 c -8.32,-12.379 -19.42,-21.871 -33.28,-28.481 -13.88,-6.613 -29.34,-9.922 -46.41,-9.922 -26.67,0 -48.91,8.586 -66.72,25.762 -17.81,17.168 -26.72,38.129 -26.72,62.879 0,25.387 9.02,46.984 27.04,64.801 18.03,17.808 40.8,26.719 68.32,26.719 16.65,0 31.9,-3.473 45.77,-10.403 13.86,-6.933 24.53,-16.691 32,-29.273"
         style="fill:#ffffff;fill-opacity:1;fill-rule:nonzero;stroke:none"
         transform="matrix(0.13333333,0,0,-0.13333333,0,110.8)" />
      <path
         id="path22"
         d="m 2826.22,371.168 h 21.77 v -29.445 c 15.14,22.613 34.56,33.922 58.23,33.922 12.59,0 23.85,-3.575 33.76,-10.719 9.92,-7.153 16.59,-17.231 20,-30.238 7.04,13.222 16.01,23.359 26.89,30.394 10.88,7.043 22.71,10.563 35.51,10.563 15.58,0 29.13,-5.493 40.65,-16.481 11.51,-10.988 17.27,-32.695 17.27,-65.121 v -92.797 h -22.4 v 92.797 c 0,15.57 -0.96,27.043 -2.88,34.402 -1.91,7.36 -6.07,13.547 -12.47,18.563 -6.41,5.008 -14.51,7.519 -24.33,7.519 -11.3,0 -21.55,-3.519 -30.72,-10.562 -9.17,-7.039 -15.47,-16 -18.88,-26.879 -3.41,-10.879 -5.11,-27.313 -5.11,-49.281 v -66.559 h -21.45 v 87.039 c 0,18.133 -0.95,31.09 -2.88,38.879 -1.91,7.785 -6.18,14.289 -12.79,19.52 -6.62,5.226 -14.73,7.843 -24.33,7.843 -9.6,0 -18.61,-2.832 -27.04,-8.48 -8.43,-5.656 -15.04,-13.391 -19.83,-23.199 -4.81,-9.817 -7.2,-26.356 -7.2,-49.602 v -72 h -21.77 v 169.922"
         style="fill:#ffffff;fill-opacity:1;fill-rule:nonzero;stroke:none"
         transform="matrix(0.13333333,0,0,-0.13333333,0,110.8)" />
      <path
         id="path23"
         d="m 3148.46,279.324 v -59.519 h 23.36 c 15.14,0 25.76,2.082 31.84,6.242 6.08,4.156 9.12,11.68 9.12,22.555 0,9.171 -2.88,16.589 -8.64,22.242 -5.76,5.648 -13.44,8.48 -23.03,8.48 z m 0,72.961 v -53.121 h 14.08 c 13.22,0 22.03,0.641 26.41,1.922 4.36,1.277 8.04,4.156 11.03,8.641 2.99,4.476 4.48,9.703 4.48,15.679 0,5.973 -1.55,11.356 -4.63,16.16 -3.1,4.801 -6.63,7.786 -10.57,8.961 -3.95,1.168 -12.85,1.758 -26.72,1.758 z m 27.21,-151.039 h -49.29 v 169.922 h 48.64 c 16.43,0 29.28,-3.898 38.57,-11.68 9.27,-7.793 13.91,-18.195 13.91,-31.203 0,-17.277 -7.67,-28.91 -23.04,-34.883 22.19,-8.109 33.29,-23.25 33.29,-45.437 0,-31.149 -20.71,-46.719 -62.08,-46.719"
         style="fill:#ffffff;fill-opacity:1;fill-rule:nonzero;stroke:none"
         transform="matrix(0.13333333,0,0,-0.13333333,0,110.8)" />
      <path
         id="path24"
         d="m 3425.26,285.406 c 0,19.836 -6.46,36.317 -19.36,49.438 -12.91,13.121 -28.86,19.683 -47.84,19.683 -18.35,0 -34.19,-6.832 -47.52,-20.484 -13.34,-13.652 -20,-29.867 -20,-48.637 0,-18.988 6.5,-35.363 19.52,-49.121 13.01,-13.762 29,-20.64 48,-20.64 17.92,0 33.6,6.664 47.04,20 13.44,13.332 20.16,29.921 20.16,49.761 z m 20.16,85.762 V 201.246 h -21.44 v 28.481 c -18.99,-22.832 -41.71,-34.243 -68.16,-34.243 -24.32,0 -44.96,8.852 -61.92,26.563 -16.96,17.703 -25.44,39.039 -25.44,64 0,24.527 8.69,45.598 26.08,63.195 17.39,17.606 38.02,26.403 61.92,26.403 27.73,0 50.24,-11.84 67.52,-35.516 v 31.039 h 21.44"
         style="fill:#ffffff;fill-opacity:1;fill-rule:nonzero;stroke:none"
         transform="matrix(0.13333333,0,0,-0.13333333,0,110.8)" />
    </g>
  </g>
</svg>